<svg id="Layer_1" data-name="Layer 1" xmlns="http://www.w3.org/2000/svg" version="1.1" viewBox="0 0 33.5 59.6">
  <defs>
    <style>
      .cls-1 {
        fill: #f8f2e4;
        stroke-width: 0px;
      }
    </style>
  </defs>
  <path class="cls-1" d="M20,52.2c0-1.1-.8-.9-1.6-.9s-.8-.3-.8-.5c0-.6,0-2.5,1.1-4.9.7-1.6,1.8-4.2,2.5-6.4.8-1.3,2.5-.5,4.2-1.5,2-1.2,2.3-3.9,2.3-4.9,0-5-3.2-12.3-3.4-18,0-2.5,1.7-4,2.9-4.6,1.2-.6,1.3-1.9.9-3.1-1,.8-4.9.5-5.9,1.8-.6.8,0,4.4.4,7.8h0c-.9,4.2-2.2,11-2.5,16.8-.2-.2-.5-.3-.6-.5-.2-.3-.5-.5-.7-.8v-2.6c.2-.5.4-1.1.5-1.8,0-.2-.2-.5-.5-.8,0-5.2.2-12.4.2-15.3v-.5c0-.2,0-.7-.6-.7s-.5.5-.5.7v.5c0,3.2,0,9.6.2,14.6-.4-.2-.8-.4-1.2-.4h0c-.4,0-.8.2-1.2.4,0-5.2.2-11.9.2-14.7s0-.4,0-.5c0-.2,0-.7-.6-.7s-.5.5-.5.7v.5c0,3.3,0,10.1.2,15.2-.3.3-.5.6-.5.8.2.7.4,1.3.5,1.8v2.5c-.2.3-.5.7-.9,1.1,0,0-.2.2-.3.2-.3-5.8-1.6-12.6-2.5-16.7h0c.3-3.4,1-6.9.4-7.8-1-1.2-4.9-1-5.9-1.8-.5,1.2-.3,2.5.9,3.1,1.2.6,2.9,2.1,2.9,4.6-.2,5.6-3.5,12.9-3.4,18,0,1.1.3,3.8,2.3,4.9,1.8,1,3.3.3,4.2,1.4.6,2.2,1.8,4.9,2.5,6.5,1,2.4,1.2,4.3,1.1,4.9,0,.2-.2.5-.8.5s-1.6-.2-1.6.9h6.2l.2-.2ZM26,8.4s-1.8,1.7-2.7.8c.6-.7,2.2-.8,2.7-.8ZM23.1,9.6c.5.3,1.2.5,1.8.5s2.4-.7,2.8-2c0,1.2-1.3,1.8-2,2.2-.7.4-2.1,1.7-2.3,2.5-.3-.8-.6-2.3-.3-3.2h0ZM23,19.3c.6,3.7,1.8,8.8,1.8,11.6,0,4.3-2.4,3.9-4,2.9.2-4.8,1.3-10.3,2.2-14.6h0ZM16.5,42.5c.2-.2.5-.2.6,0,.2.3.3,2.2.2,3,0,.5-.4,2.5-.4,3.1s-.2,0-.2,0c0-.5-.4-2.7-.5-3.2,0-.7-.2-2.5.2-2.9ZM13.1,33.9c-1.6.9-4,1.5-4-2.9s1.1-7.9,1.8-11.6c.9,4.2,2,9.8,2.2,14.6h0ZM10.4,9.2c-.9.8-2.7-.8-2.7-.8.5,0,2.1.2,2.7.8ZM8.9,10.1c.7,0,1.3-.2,1.8-.5.3,1,0,2.5-.3,3.2-.2-.8-1.5-2.2-2.3-2.5-.7-.4-2.1-1-2-2.2.5,1.3,2.1,2,2.8,2h0Z"></path>
</svg>